<svg width="720" height="400" viewBox="0 0 720 400" class="keymap" xmlns="http://www.w3.org/2000/svg" xmlns:xlink="http://www.w3.org/1999/xlink">
<defs>/* start glyphs */
<svg id="mdi:apple-keyboard-command">
<svg xmlns="http://www.w3.org/2000/svg" id="mdi-apple-keyboard-command" viewBox="0 0 24 24"><path d="M6,2A4,4 0 0,1 10,6V8H14V6A4,4 0 0,1 18,2A4,4 0 0,1 22,6A4,4 0 0,1 18,10H16V14H18A4,4 0 0,1 22,18A4,4 0 0,1 18,22A4,4 0 0,1 14,18V16H10V18A4,4 0 0,1 6,22A4,4 0 0,1 2,18A4,4 0 0,1 6,14H8V10H6A4,4 0 0,1 2,6A4,4 0 0,1 6,2M16,18A2,2 0 0,0 18,20A2,2 0 0,0 20,18A2,2 0 0,0 18,16H16V18M14,10H10V14H14V10M6,16A2,2 0 0,0 4,18A2,2 0 0,0 6,20A2,2 0 0,0 8,18V16H6M8,6A2,2 0 0,0 6,4A2,2 0 0,0 4,6A2,2 0 0,0 6,8H8V6M18,8A2,2 0 0,0 20,6A2,2 0 0,0 18,4A2,2 0 0,0 16,6V8H18Z" /></svg>
</svg>
<svg id="mdi:apple-keyboard-control">
<svg xmlns="http://www.w3.org/2000/svg" id="mdi-apple-keyboard-control" viewBox="0 0 24 24"><path d="M19.78,11.78L18.36,13.19L12,6.83L5.64,13.19L4.22,11.78L12,4L19.78,11.78Z" /></svg>
</svg>
<svg id="mdi:apple-keyboard-option">
<svg xmlns="http://www.w3.org/2000/svg" id="mdi-apple-keyboard-option" viewBox="0 0 24 24"><path d="M3,4H9.11L16.15,18H21V20H14.88L7.84,6H3V4M14,4H21V6H14V4Z" /></svg>
</svg>
<svg id="mdi:apple-keyboard-shift">
<svg xmlns="http://www.w3.org/2000/svg" id="mdi-apple-keyboard-shift" viewBox="0 0 24 24"><path d="M15,18V12H17.17L12,6.83L6.83,12H9V18H15M12,4L22,14H17V20H7V14H2L12,4Z" /></svg>
</svg>
<svg id="mdi:arrow-down">
<svg xmlns="http://www.w3.org/2000/svg" id="mdi-arrow-down" viewBox="0 0 24 24"><path d="M11,4H13V16L18.5,10.5L19.92,11.92L12,19.84L4.08,11.92L5.5,10.5L11,16V4Z" /></svg>
</svg>
<svg id="mdi:arrow-down-bold-outline">
<svg xmlns="http://www.w3.org/2000/svg" id="mdi-arrow-down-bold-outline" viewBox="0 0 24 24"><path d="M22,11L12,21L2,11H8V3H16V11H22M12,18L17,13H14V5H10V13H7L12,18Z" /></svg>
</svg>
<svg id="mdi:arrow-left">
<svg xmlns="http://www.w3.org/2000/svg" id="mdi-arrow-left" viewBox="0 0 24 24"><path d="M20,11V13H8L13.5,18.5L12.08,19.92L4.16,12L12.08,4.08L13.5,5.5L8,11H20Z" /></svg>
</svg>
<svg id="mdi:arrow-right">
<svg xmlns="http://www.w3.org/2000/svg" id="mdi-arrow-right" viewBox="0 0 24 24"><path d="M4,11V13H16L10.5,18.5L11.92,19.92L19.84,12L11.92,4.08L10.5,5.5L16,11H4Z" /></svg>
</svg>
<svg id="mdi:arrow-up">
<svg xmlns="http://www.w3.org/2000/svg" id="mdi-arrow-up" viewBox="0 0 24 24"><path d="M13,20H11V8L5.5,13.5L4.08,12.08L12,4.16L19.92,12.08L18.5,13.5L13,8V20Z" /></svg>
</svg>
<svg id="mdi:arrow-up-bold-outline">
<svg xmlns="http://www.w3.org/2000/svg" id="mdi-arrow-up-bold-outline" viewBox="0 0 24 24"><path d="M16,13V21H8V13H2L12,3L22,13H16M7,11H10V19H14V11H17L12,6L7,11Z" /></svg>
</svg>
<svg id="mdi:backspace-outline">
<svg xmlns="http://www.w3.org/2000/svg" id="mdi-backspace-outline" viewBox="0 0 24 24"><path d="M19,15.59L17.59,17L14,13.41L10.41,17L9,15.59L12.59,12L9,8.41L10.41,7L14,10.59L17.59,7L19,8.41L15.41,12L19,15.59M22,3A2,2 0 0,1 24,5V19A2,2 0 0,1 22,21H7C6.31,21 5.77,20.64 5.41,20.11L0,12L5.41,3.88C5.77,3.35 6.31,3 7,3H22M22,5H7L2.28,12L7,19H22V5Z" /></svg>
</svg>
<svg id="mdi:backspace-reverse-outline">
<svg xmlns="http://www.w3.org/2000/svg" id="mdi-backspace-reverse-outline" viewBox="0 0 24 24"><path d="M5,15.59L6.41,17L10,13.41L13.59,17L15,15.59L11.41,12L15,8.41L13.59,7L10,10.59L6.41,7L5,8.41L8.59,12L5,15.59M2,3A2,2 0 0,0 0,5V19A2,2 0 0,0 2,21H17C17.69,21 18.23,20.64 18.59,20.11L24,12L18.59,3.88C18.23,3.35 17.69,3 17,3H2M2,5H17L21.72,12L17,19H2V5Z" /></svg>
</svg>
<svg id="mdi:bluetooth">
<svg xmlns="http://www.w3.org/2000/svg" id="mdi-bluetooth" viewBox="0 0 24 24"><path d="M14.88,16.29L13,18.17V14.41M13,5.83L14.88,7.71L13,9.58M17.71,7.71L12,2H11V9.58L6.41,5L5,6.41L10.59,12L5,17.58L6.41,19L11,14.41V22H12L17.71,16.29L13.41,12L17.71,7.71Z" /></svg>
</svg>
<svg id="mdi:bluetooth-off">
<svg xmlns="http://www.w3.org/2000/svg" id="mdi-bluetooth-off" viewBox="0 0 24 24"><path d="M13,5.83L14.88,7.71L13.28,9.31L14.69,10.72L17.71,7.7L12,2H11V7.03L13,9.03M5.41,4L4,5.41L10.59,12L5,17.59L6.41,19L11,14.41V22H12L16.29,17.71L18.59,20L20,18.59M13,18.17V14.41L14.88,16.29" /></svg>
</svg>
<svg id="mdi:bug">
<svg xmlns="http://www.w3.org/2000/svg" id="mdi-bug" viewBox="0 0 24 24"><path d="M14,12H10V10H14M14,16H10V14H14M20,8H17.19C16.74,7.22 16.12,6.55 15.37,6.04L17,4.41L15.59,3L13.42,5.17C12.96,5.06 12.5,5 12,5C11.5,5 11.04,5.06 10.59,5.17L8.41,3L7,4.41L8.62,6.04C7.88,6.55 7.26,7.22 6.81,8H4V10H6.09C6.04,10.33 6,10.66 6,11V12H4V14H6V15C6,15.34 6.04,15.67 6.09,16H4V18H6.81C7.85,19.79 9.78,21 12,21C14.22,21 16.15,19.79 17.19,18H20V16H17.91C17.96,15.67 18,15.34 18,15V14H20V12H18V11C18,10.66 17.96,10.33 17.91,10H20V8Z" /></svg>
</svg>
<svg id="mdi:camera">
<svg xmlns="http://www.w3.org/2000/svg" id="mdi-camera" viewBox="0 0 24 24"><path d="M4,4H7L9,2H15L17,4H20A2,2 0 0,1 22,6V18A2,2 0 0,1 20,20H4A2,2 0 0,1 2,18V6A2,2 0 0,1 4,4M12,7A5,5 0 0,0 7,12A5,5 0 0,0 12,17A5,5 0 0,0 17,12A5,5 0 0,0 12,7M12,9A3,3 0 0,1 15,12A3,3 0 0,1 12,15A3,3 0 0,1 9,12A3,3 0 0,1 12,9Z" /></svg>
</svg>
<svg id="mdi:close">
<svg xmlns="http://www.w3.org/2000/svg" id="mdi-close" viewBox="0 0 24 24"><path d="M19,6.41L17.59,5L12,10.59L6.41,5L5,6.41L10.59,12L5,17.59L6.41,19L12,13.41L17.59,19L19,17.59L13.41,12L19,6.41Z" /></svg>
</svg>
<svg id="mdi:console">
<svg xmlns="http://www.w3.org/2000/svg" id="mdi-console" viewBox="0 0 24 24"><path d="M20,19V7H4V19H20M20,3A2,2 0 0,1 22,5V19A2,2 0 0,1 20,21H4A2,2 0 0,1 2,19V5C2,3.89 2.9,3 4,3H20M13,17V15H18V17H13M9.58,13L5.57,9H8.4L11.7,12.3C12.09,12.69 12.09,13.33 11.7,13.72L8.42,17H5.59L9.58,13Z" /></svg>
</svg>
<svg id="mdi:debug-step-into">
<svg xmlns="http://www.w3.org/2000/svg" id="mdi-debug-step-into" viewBox="0 0 24 24"><path d="M12,22A2,2 0 0,1 10,20A2,2 0 0,1 12,18A2,2 0 0,1 14,20A2,2 0 0,1 12,22M13,2V13L17.5,8.5L18.92,9.92L12,16.84L5.08,9.92L6.5,8.5L11,13V2H13Z" /></svg>
</svg>
<svg id="mdi:debug-step-out">
<svg xmlns="http://www.w3.org/2000/svg" id="mdi-debug-step-out" viewBox="0 0 24 24"><path d="M12,22A2,2 0 0,1 10,20A2,2 0 0,1 12,18A2,2 0 0,1 14,20A2,2 0 0,1 12,22M13,16H11V6L6.5,10.5L5.08,9.08L12,2.16L18.92,9.08L17.5,10.5L13,6V16Z" /></svg>
</svg>
<svg id="mdi:debug-step-over">
<svg xmlns="http://www.w3.org/2000/svg" id="mdi-debug-step-over" viewBox="0 0 24 24"><path d="M12,14A2,2 0 0,1 14,16A2,2 0 0,1 12,18A2,2 0 0,1 10,16A2,2 0 0,1 12,14M23.46,8.86L21.87,15.75L15,14.16L18.8,11.78C17.39,9.5 14.87,8 12,8C8.05,8 4.77,10.86 4.12,14.63L2.15,14.28C2.96,9.58 7.06,6 12,6C15.58,6 18.73,7.89 20.5,10.72L23.46,8.86Z" /></svg>
</svg>
<svg id="mdi:delete">
<svg xmlns="http://www.w3.org/2000/svg" id="mdi-delete" viewBox="0 0 24 24"><path d="M19,4H15.5L14.5,3H9.5L8.5,4H5V6H19M6,19A2,2 0 0,0 8,21H16A2,2 0 0,0 18,19V7H6V19Z" /></svg>
</svg>
<svg id="mdi:desktop-classic">
<svg xmlns="http://www.w3.org/2000/svg" id="mdi-desktop-classic" viewBox="0 0 24 24"><path d="M6,2C4.89,2 4,2.89 4,4V12C4,13.11 4.89,14 6,14H18C19.11,14 20,13.11 20,12V4C20,2.89 19.11,2 18,2H6M6,4H18V12H6V4M4,15C2.89,15 2,15.89 2,17V20C2,21.11 2.89,22 4,22H20C21.11,22 22,21.11 22,20V17C22,15.89 21.11,15 20,15H4M8,17H20V20H8V17M9,17.75V19.25H13V17.75H9M15,17.75V19.25H19V17.75H15Z" /></svg>
</svg>
<svg id="mdi:emoticon-happy-outline">
<svg xmlns="http://www.w3.org/2000/svg" id="mdi-emoticon-happy-outline" viewBox="0 0 24 24"><path d="M20,12A8,8 0 0,0 12,4A8,8 0 0,0 4,12A8,8 0 0,0 12,20A8,8 0 0,0 20,12M22,12A10,10 0 0,1 12,22A10,10 0 0,1 2,12A10,10 0 0,1 12,2A10,10 0 0,1 22,12M10,9.5C10,10.3 9.3,11 8.5,11C7.7,11 7,10.3 7,9.5C7,8.7 7.7,8 8.5,8C9.3,8 10,8.7 10,9.5M17,9.5C17,10.3 16.3,11 15.5,11C14.7,11 14,10.3 14,9.5C14,8.7 14.7,8 15.5,8C16.3,8 17,8.7 17,9.5M12,17.23C10.25,17.23 8.71,16.5 7.81,15.42L9.23,14C9.68,14.72 10.75,15.23 12,15.23C13.25,15.23 14.32,14.72 14.77,14L16.19,15.42C15.29,16.5 13.75,17.23 12,17.23Z" /></svg>
</svg>
<svg id="mdi:file-tree">
<svg xmlns="http://www.w3.org/2000/svg" id="mdi-file-tree" viewBox="0 0 24 24"><path d="M3,3H9V7H3V3M15,10H21V14H15V10M15,17H21V21H15V17M13,13H7V18H13V20H7L5,20V9H7V11H13V13Z" /></svg>
</svg>
<svg id="mdi:flash">
<svg xmlns="http://www.w3.org/2000/svg" id="mdi-flash" viewBox="0 0 24 24"><path d="M7,2V13H10V22L17,10H13L17,2H7Z" /></svg>
</svg>
<svg id="mdi:folder-open">
<svg xmlns="http://www.w3.org/2000/svg" id="mdi-folder-open" viewBox="0 0 24 24"><path d="M19,20H4C2.89,20 2,19.1 2,18V6C2,4.89 2.89,4 4,4H10L12,6H19A2,2 0 0,1 21,8H21L4,8V18L6.14,10H23.21L20.93,18.5C20.7,19.37 19.92,20 19,20Z" /></svg>
</svg>
<svg id="mdi:format-horizontal-align-left">
<svg xmlns="http://www.w3.org/2000/svg" id="mdi-format-horizontal-align-left" viewBox="0 0 24 24"><path d="M11,16V13H21V11H11V8L7,12L11,16M3,20H5V4H3V20Z" /></svg>
</svg>
<svg id="mdi:format-horizontal-align-right">
<svg xmlns="http://www.w3.org/2000/svg" id="mdi-format-horizontal-align-right" viewBox="0 0 24 24"><path d="M13,8V11H3V13H13V16L17,12L13,8M19,20H21V4H19V20Z" /></svg>
</svg>
<svg id="mdi:format-letter-case">
<svg xmlns="http://www.w3.org/2000/svg" id="mdi-format-letter-case" viewBox="0 0 24 24"><path d="M20.06,18C20,17.83 19.91,17.54 19.86,17.11C19.19,17.81 18.38,18.16 17.45,18.16C16.62,18.16 15.93,17.92 15.4,17.45C14.87,17 14.6,16.39 14.6,15.66C14.6,14.78 14.93,14.1 15.6,13.61C16.27,13.12 17.21,12.88 18.43,12.88H19.83V12.24C19.83,11.75 19.68,11.36 19.38,11.07C19.08,10.78 18.63,10.64 18.05,10.64C17.53,10.64 17.1,10.76 16.75,11C16.4,11.25 16.23,11.54 16.23,11.89H14.77C14.77,11.46 14.92,11.05 15.22,10.65C15.5,10.25 15.93,9.94 16.44,9.71C16.95,9.5 17.5,9.36 18.13,9.36C19.11,9.36 19.87,9.6 20.42,10.09C20.97,10.58 21.26,11.25 21.28,12.11V16C21.28,16.8 21.38,17.42 21.58,17.88V18H20.06M17.66,16.88C18.11,16.88 18.54,16.77 18.95,16.56C19.35,16.35 19.65,16.07 19.83,15.73V14.16H18.7C16.93,14.16 16.04,14.63 16.04,15.57C16.04,16 16.19,16.3 16.5,16.53C16.8,16.76 17.18,16.88 17.66,16.88M5.46,13.71H9.53L7.5,8.29L5.46,13.71M6.64,6H8.36L13.07,18H11.14L10.17,15.43H4.82L3.86,18H1.93L6.64,6Z" /></svg>
</svg>
<svg id="mdi:keyboard-return">
<svg xmlns="http://www.w3.org/2000/svg" id="mdi-keyboard-return" viewBox="0 0 24 24"><path d="M19,7V11H5.83L9.41,7.41L8,6L2,12L8,18L9.41,16.58L5.83,13H21V7H19Z" /></svg>
</svg>
<svg id="mdi:keyboard-space">
<svg xmlns="http://www.w3.org/2000/svg" id="mdi-keyboard-space" viewBox="0 0 24 24"><path d="M3 15H5V19H19V15H21V19C21 20.1 20.1 21 19 21H5C3.9 21 3 20.1 3 19V15Z" /></svg>
</svg>
<svg id="mdi:lock">
<svg xmlns="http://www.w3.org/2000/svg" id="mdi-lock" viewBox="0 0 24 24"><path d="M12,17A2,2 0 0,0 14,15C14,13.89 13.1,13 12,13A2,2 0 0,0 10,15A2,2 0 0,0 12,17M18,8A2,2 0 0,1 20,10V20A2,2 0 0,1 18,22H6A2,2 0 0,1 4,20V10C4,8.89 4.9,8 6,8H7V6A5,5 0 0,1 12,1A5,5 0 0,1 17,6V8H18M12,3A3,3 0 0,0 9,6V8H15V6A3,3 0 0,0 12,3Z" /></svg>
</svg>
<svg id="mdi:microphone">
<svg xmlns="http://www.w3.org/2000/svg" id="mdi-microphone" viewBox="0 0 24 24"><path d="M12,2A3,3 0 0,1 15,5V11A3,3 0 0,1 12,14A3,3 0 0,1 9,11V5A3,3 0 0,1 12,2M19,11C19,14.53 16.39,17.44 13,17.93V21H11V17.93C7.61,17.44 5,14.53 5,11H7A5,5 0 0,0 12,16A5,5 0 0,0 17,11H19Z" /></svg>
</svg>
<svg id="mdi:microsoft-visual-studio-code">
<svg xmlns="http://www.w3.org/2000/svg" id="mdi-microsoft-visual-studio-code" viewBox="0 0 24 24"><path d="M17,16.47V7.39L11,11.93M2.22,9.19C1.92,8.87 1.91,8.37 2.2,8.04L3.4,6.93C3.6,6.75 4.09,6.67 4.45,6.93L7.87,9.54L15.8,2.29C16.12,1.97 16.67,1.84 17.3,2.17L21.3,4.08C21.66,4.29 22,4.62 22,5.23V18.73C22,19.13 21.71,19.56 21.4,19.73L17,21.83C16.68,21.96 16.08,21.84 15.87,21.63L7.85,14.33L4.45,16.93C4.07,17.19 3.6,17.12 3.4,16.93L2.2,15.83C1.88,15.5 1.92,14.96 2.25,14.63L5.25,11.93" /></svg>
</svg>
<svg id="mdi:play-pause">
<svg xmlns="http://www.w3.org/2000/svg" id="mdi-play-pause" viewBox="0 0 24 24"><path d="M3,5V19L11,12M13,19H16V5H13M18,5V19H21V5" /></svg>
</svg>
<svg id="mdi:power-sleep">
<svg xmlns="http://www.w3.org/2000/svg" id="mdi-power-sleep" viewBox="0 0 24 24"><path d="M18.73,18C15.4,21.69 9.71,22 6,18.64C2.33,15.31 2.04,9.62 5.37,5.93C6.9,4.25 9,3.2 11.27,3C7.96,6.7 8.27,12.39 12,15.71C13.63,17.19 15.78,18 18,18C18.25,18 18.5,18 18.73,18Z" /></svg>
</svg>
<svg id="mdi:repeat">
<svg xmlns="http://www.w3.org/2000/svg" id="mdi-repeat" viewBox="0 0 24 24"><path d="M17,17H7V14L3,18L7,22V19H19V13H17M7,7H17V10L21,6L17,2V5H5V11H7V7Z" /></svg>
</svg>
<svg id="mdi:skip-backward">
<svg xmlns="http://www.w3.org/2000/svg" id="mdi-skip-backward" viewBox="0 0 24 24"><path d="M20,5V19L13,12M6,5V19H4V5M13,5V19L6,12" /></svg>
</svg>
<svg id="mdi:skip-forward">
<svg xmlns="http://www.w3.org/2000/svg" id="mdi-skip-forward" viewBox="0 0 24 24"><path d="M4,5V19L11,12M18,5V19H20V5M11,5V19L18,12" /></svg>
</svg>
<svg id="mdi:usb-port">
<svg xmlns="http://www.w3.org/2000/svg" id="mdi-usb-port" viewBox="0 0 24 24"><path d="M8 2C6.9 2 6 2.9 6 4V12H5V16L9 20V22H15V20L19 16V12H18V4C18 2.9 17.11 2 16 2M8 4H16V12H8M9 7V9H11V7M13 7V9H15V7Z" /></svg>
</svg>
<svg id="mdi:volume-high">
<svg xmlns="http://www.w3.org/2000/svg" id="mdi-volume-high" viewBox="0 0 24 24"><path d="M14,3.23V5.29C16.89,6.15 19,8.83 19,12C19,15.17 16.89,17.84 14,18.7V20.77C18,19.86 21,16.28 21,12C21,7.72 18,4.14 14,3.23M16.5,12C16.5,10.23 15.5,8.71 14,7.97V16C15.5,15.29 16.5,13.76 16.5,12M3,9V15H7L12,20V4L7,9H3Z" /></svg>
</svg>
<svg id="mdi:volume-medium">
<svg xmlns="http://www.w3.org/2000/svg" id="mdi-volume-medium" viewBox="0 0 24 24"><path d="M5,9V15H9L14,20V4L9,9M18.5,12C18.5,10.23 17.5,8.71 16,7.97V16C17.5,15.29 18.5,13.76 18.5,12Z" /></svg>
</svg>
</defs>/* end glyphs */
<style>/* inherit to force styles through use tags */
svg path {
    fill: inherit;
}

/* font and background color specifications */
svg.keymap {
    font-family: SFMono-Regular,Consolas,Liberation Mono,Menlo,monospace;
    font-size: 14px;
    font-kerning: normal;
    text-rendering: optimizeLegibility;
    fill: #24292e;
}

/* default key styling */
rect.key {
    fill: #f6f8fa;
}

rect.key, rect.combo {
    stroke: #c9cccf;
    stroke-width: 1;
}

/* default key side styling, only used is draw_key_sides is set */
rect.side {
    filter: brightness(90%);
}

/* color accent for combo boxes */
rect.combo, rect.combo-separate {
    fill: #cdf;
}

/* color accent for held keys */
rect.held, rect.combo.held {
    fill: #fdd;
}

/* color accent for ghost (optional) keys */
rect.ghost, rect.combo.ghost {
    stroke-dasharray: 4, 4;
    stroke-width: 2;
}

text {
    text-anchor: middle;
    dominant-baseline: middle;
}

/* styling for layer labels */
text.label {
    font-weight: bold;
    text-anchor: start;
    stroke: white;
    stroke-width: 4;
    paint-order: stroke;
}

/* styling for optional footer */
text.footer {
    text-anchor: end;
    dominant-baseline: auto;
    stroke: white;
    stroke-width: 4;
    paint-order: stroke;
}

/* styling for combo tap, and key non-tap label text */
text.combo, text.hold, text.shifted, text.left, text.right {
    font-size: 11px;
}

text.hold {
    text-anchor: middle;
    dominant-baseline: auto;
}

text.shifted {
    text-anchor: middle;
    dominant-baseline: hanging;
}

text.left {
    text-anchor: start;
}

text.right {
    text-anchor: end;
}

text.layer-activator {
    text-decoration: underline;
}

/* styling for hold/shifted label text in combo box */
text.combo.hold, text.combo.shifted, text.combo.left, text.combo.right {
    font-size: 8px;
}

/* lighter symbol for transparent keys */
text.trans {
    fill: #7b7e81;
}

/* styling for combo dendrons */
path.combo {
    stroke-width: 1;
    stroke: gray;
    fill: none;
}

/* Start Tabler Icons Cleanup */
/* cannot use height/width with glyphs */
.icon-tabler > path {
    fill: inherit;
    stroke: inherit;
    stroke-width: 2;
}
/* hide tabler's default box */
.icon-tabler > path[stroke="none"][fill="none"] {
    visibility: hidden;
}
/* End Tabler Icons Cleanup */

svg.keymap { fill: #d1d6db; }
rect.key { fill: #3f4750; }
rect.key, rect.combo { stroke: #60666c; }
rect.combo, rect.combo-separate { fill: #1f3d7a; }
rect.held, rect.combo.held { fill: #854747; }
text.label, text.footer { stroke: black; }
text.trans { fill: #7e8184; }
path.combo { stroke: #7f7f7f; }

rect.held.alternate { fill: #ffe6f2; }</style>
<g transform="translate(30, 0)" class="layer-func">
<text x="0" y="28" class="label" id="func">func:</text>
<g transform="translate(0, 72)">
<g transform="translate(105, 34)" class="key keypos-0">
<rect rx="6" ry="6" x="-33" y="-32" width="66" height="64" class="key"/>
<use href="#mdi:bluetooth" xlink:href="#mdi:bluetooth" x="-7" y="-7" height="14" width="14.0" class="key tap glyph mdi:bluetooth"/>
<use href="#mdi:arrow-left" xlink:href="#mdi:arrow-left" x="-6" y="18" height="12" width="12.0" class="key hold glyph mdi:arrow-left"/>
</g>
<g transform="translate(175, 34)" class="key keypos-1">
<rect rx="6" ry="6" x="-33" y="-32" width="66" height="64" class="key"/>
<use href="#mdi:bluetooth" xlink:href="#mdi:bluetooth" x="-7" y="-7" height="14" width="14.0" class="key tap glyph mdi:bluetooth"/>
<use href="#mdi:arrow-right" xlink:href="#mdi:arrow-right" x="-6" y="18" height="12" width="12.0" class="key hold glyph mdi:arrow-right"/>
</g>
<g transform="translate(245, 34)" class="key keypos-2">
<rect rx="6" ry="6" x="-33" y="-32" width="66" height="64" class="key"/>
<use href="#mdi:bluetooth" xlink:href="#mdi:bluetooth" x="-7" y="-7" height="14" width="14.0" class="key tap glyph mdi:bluetooth"/>
<text x="0" y="30" class="key hold">0</text>
</g>
<g transform="translate(415, 34)" class="key keypos-3">
<rect rx="6" ry="6" x="-33" y="-32" width="66" height="64" class="key"/>
<text x="0" y="0" class="key tap">F7</text>
</g>
<g transform="translate(485, 34)" class="key keypos-4">
<rect rx="6" ry="6" x="-33" y="-32" width="66" height="64" class="key"/>
<text x="0" y="0" class="key tap">F8</text>
</g>
<g transform="translate(555, 34)" class="key keypos-5">
<rect rx="6" ry="6" x="-33" y="-32" width="66" height="64" class="key"/>
<text x="0" y="0" class="key tap">F9</text>
</g>
<g transform="translate(35, 102)" class="key held keypos-6">
<rect rx="6" ry="6" x="-33" y="-32" width="66" height="64" class="key held"/>
</g>
<g transform="translate(105, 102)" class="key keypos-7">
<rect rx="6" ry="6" x="-33" y="-32" width="66" height="64" class="key"/>
<use href="#mdi:apple-keyboard-control" xlink:href="#mdi:apple-keyboard-control" x="-7" y="-7" height="14" width="14.0" class="key tap glyph mdi:apple-keyboard-control"/>
</g>
<g transform="translate(175, 102)" class="key keypos-8">
<rect rx="6" ry="6" x="-33" y="-32" width="66" height="64" class="key"/>
<use href="#mdi:apple-keyboard-option" xlink:href="#mdi:apple-keyboard-option" x="-7" y="-7" height="14" width="14.0" class="key tap glyph mdi:apple-keyboard-option"/>
</g>
<g transform="translate(245, 102)" class="key keypos-9">
<rect rx="6" ry="6" x="-33" y="-32" width="66" height="64" class="key"/>
<use href="#mdi:apple-keyboard-shift" xlink:href="#mdi:apple-keyboard-shift" x="-7" y="-7" height="14" width="14.0" class="key tap glyph mdi:apple-keyboard-shift"/>
</g>
<g transform="translate(415, 102)" class="key keypos-10">
<rect rx="6" ry="6" x="-33" y="-32" width="66" height="64" class="key"/>
<text x="0" y="0" class="key tap">F4</text>
</g>
<g transform="translate(485, 102)" class="key keypos-11">
<rect rx="6" ry="6" x="-33" y="-32" width="66" height="64" class="key"/>
<text x="0" y="0" class="key tap">F5</text>
</g>
<g transform="translate(555, 102)" class="key keypos-12">
<rect rx="6" ry="6" x="-33" y="-32" width="66" height="64" class="key"/>
<text x="0" y="0" class="key tap">F6</text>
</g>
<g transform="translate(625, 102)" class="key keypos-13">
<rect rx="6" ry="6" x="-33" y="-32" width="66" height="64" class="key"/>
</g>
<g transform="translate(105, 170)" class="key keypos-14">
<rect rx="6" ry="6" x="-33" y="-32" width="66" height="64" class="key"/>
</g>
<g transform="translate(175, 170)" class="key keypos-15">
<rect rx="6" ry="6" x="-33" y="-32" width="66" height="64" class="key"/>
</g>
<g transform="translate(245, 170)" class="key keypos-16">
<rect rx="6" ry="6" x="-33" y="-32" width="66" height="64" class="key"/>
<use href="#mdi:apple-keyboard-command" xlink:href="#mdi:apple-keyboard-command" x="-7" y="-7" height="14" width="14.0" class="key tap glyph mdi:apple-keyboard-command"/>
</g>
<g transform="translate(415, 170)" class="key keypos-17">
<rect rx="6" ry="6" x="-33" y="-32" width="66" height="64" class="key"/>
<text x="0" y="0" class="key tap">F1</text>
</g>
<g transform="translate(485, 170)" class="key keypos-18">
<rect rx="6" ry="6" x="-33" y="-32" width="66" height="64" class="key"/>
<text x="0" y="0" class="key tap">F2</text>
</g>
<g transform="translate(555, 170)" class="key keypos-19">
<rect rx="6" ry="6" x="-33" y="-32" width="66" height="64" class="key"/>
<text x="0" y="0" class="key tap">F3</text>
</g>
<g transform="translate(210, 238)" class="key held keypos-20">
<rect rx="6" ry="6" x="-33" y="-32" width="66" height="64" class="key held"/>
</g>
<g transform="translate(280, 238)" class="key keypos-21">
<rect rx="6" ry="6" x="-33" y="-32" width="66" height="64" class="key"/>
<use href="#mdi:flash" xlink:href="#mdi:flash" x="-7" y="-7" height="14" width="14.0" class="key tap glyph mdi:flash"/>
<text x="0" y="-30" class="key shifted">boot</text>
</g>
<g transform="translate(380, 238)" class="key keypos-22">
<rect rx="6" ry="6" x="-33" y="-32" width="66" height="64" class="key"/>
<use href="#mdi:flash" xlink:href="#mdi:flash" x="-7" y="-7" height="14" width="14.0" class="key tap glyph mdi:flash"/>
<text x="0" y="-30" class="key shifted">boot</text>
</g>
<g transform="translate(450, 238)" class="key keypos-23">
<rect rx="6" ry="6" x="-33" y="-32" width="66" height="64" class="key"/>
</g>
<g class="combo combopos-0">
<path d="M175,-1 h-64 a6.0,6.0 0 0 0 -6.0,6.0 v6" class="combo"/>
<path d="M175,-1 l0,21" class="combo"/>
<path d="M175,-1 h64 a6.0,6.0 0 0 1 6.0,6.0 v6" class="combo"/>
<rect rx="6" ry="6" x="158" y="-16" width="34" height="30" class="combo"/>
<use href="#mdi:bluetooth-off" xlink:href="#mdi:bluetooth-off" x="168" y="-8" height="14" width="14.0" class="combo tap glyph mdi:bluetooth-off"/>
<use href="#mdi:delete" xlink:href="#mdi:delete" x="169" y="0" height="12" width="12.0" class="combo hold glyph mdi:delete"/>
</g>
<g class="combo combopos-1">
<rect rx="6" ry="6" x="398" y="121" width="34" height="30" class="combo"/>
<text x="415" y="136" class="combo tap">F10</text>
</g>
<g class="combo combopos-2">
<rect rx="6" ry="6" x="468" y="121" width="34" height="30" class="combo"/>
<text x="485" y="136" class="combo tap">F11</text>
</g>
<g class="combo combopos-3">
<rect rx="6" ry="6" x="538" y="121" width="34" height="30" class="combo"/>
<text x="555" y="136" class="combo tap">F12</text>
</g>
<g class="combo combopos-4">
<rect rx="6" ry="6" x="398" y="53" width="34" height="30" class="combo"/>
<text x="415" y="68" class="combo tap">F13</text>
</g>
<g class="combo combopos-5">
<rect rx="6" ry="6" x="468" y="53" width="34" height="30" class="combo"/>
<text x="485" y="68" class="combo tap">F14</text>
</g>
<g class="combo combopos-6">
<rect rx="6" ry="6" x="538" y="53" width="34" height="30" class="combo"/>
<text x="555" y="68" class="combo tap">F15</text>
</g>
</g>
</g>
</svg>
